<svg width="1024" height="1024" viewBox="0 0 1024 1024" xmlns="http://www.w3.org/2000/svg">
  <!-- Black background with rounded corners -->
  <rect width="1024" height="1024" fill="#000000" rx="180" ry="180"/>
  
  <!-- T piece (Purple) - Top center -->
  <rect x="384" y="192" width="64" height="64" fill="#9C27B0" stroke="#7B1FA2" stroke-width="2"/>
  <rect x="320" y="256" width="64" height="64" fill="#9C27B0" stroke="#7B1FA2" stroke-width="2"/>
  <rect x="384" y="256" width="64" height="64" fill="#9C27B0" stroke="#7B1FA2" stroke-width="2"/>
  <rect x="448" y="256" width="64" height="64" fill="#9C27B0" stroke="#7B1FA2" stroke-width="2"/>
  
  <!-- O piece (Yellow) - Center -->
  <rect x="448" y="448" width="64" height="64" fill="#FFEB3B" stroke="#FBC02D" stroke-width="2"/>
  <rect x="512" y="448" width="64" height="64" fill="#FFEB3B" stroke="#FBC02D" stroke-width="2"/>
  <rect x="448" y="512" width="64" height="64" fill="#FFEB3B" stroke="#FBC02D" stroke-width="2"/>
  <rect x="512" y="512" width="64" height="64" fill="#FFEB3B" stroke="#FBC02D" stroke-width="2"/>
  
  <!-- I piece (Cyan) - Bottom center -->
  <rect x="320" y="640" width="64" height="64" fill="#00BCD4" stroke="#0097A7" stroke-width="2"/>
  <rect x="384" y="640" width="64" height="64" fill="#00BCD4" stroke="#0097A7" stroke-width="2"/>
  <rect x="448" y="640" width="64" height="64" fill="#00BCD4" stroke="#0097A7" stroke-width="2"/>
  <rect x="512" y="640" width="64" height="64" fill="#00BCD4" stroke="#0097A7" stroke-width="2"/>
  
  <!-- L piece (Orange) - Left -->
  <rect x="192" y="384" width="64" height="64" fill="#FF9800" stroke="#F57C00" stroke-width="2"/>
  <rect x="192" y="448" width="64" height="64" fill="#FF9800" stroke="#F57C00" stroke-width="2"/>
  <rect x="192" y="512" width="64" height="64" fill="#FF9800" stroke="#F57C00" stroke-width="2"/>
  <rect x="256" y="512" width="64" height="64" fill="#FF9800" stroke="#F57C00" stroke-width="2"/>
  
  <!-- S piece (Green) - Right -->
  <rect x="640" y="448" width="64" height="64" fill="#4CAF50" stroke="#388E3C" stroke-width="2"/>
  <rect x="704" y="448" width="64" height="64" fill="#4CAF50" stroke="#388E3C" stroke-width="2"/>
  <rect x="576" y="512" width="64" height="64" fill="#4CAF50" stroke="#388E3C" stroke-width="2"/>
  <rect x="640" y="512" width="64" height="64" fill="#4CAF50" stroke="#388E3C" stroke-width="2"/>
</svg>